<?xml version="1.0" encoding="utf-8"?>
<!-- Generator: Adobe Illustrator 21.0.2, SVG Export Plug-In . SVG Version: 6.00 Build 0)  -->
<svg version="1.1" id="Layer_1" xmlns="http://www.w3.org/2000/svg" xmlns:xlink="http://www.w3.org/1999/xlink" x="0px" y="0px"
	 viewBox="0 0 100 100" style="enable-background:new 0 0 100 100;" xml:space="preserve">
<g>
	<path d="M50,35c8.3,0,15-6.7,15-15c0-8.3-6.7-15-15-15s-15,6.7-15,15C35,28.3,41.7,35,50,35z M50,9c6.1,0,11,4.9,11,11
		s-4.9,11-11,11s-11-4.9-11-11S43.9,9,50,9z"/>
	<path d="M50,29c2.1,0,4.1-1,5.5-2.7c0.7-0.9,0.6-2.1-0.3-2.8c-0.9-0.7-2.1-0.6-2.8,0.3c-1.4,1.6-3.6,1.6-4.9,0
		c-0.7-0.9-2-1-2.8-0.3c-0.9,0.7-1,2-0.3,2.8C45.9,28,47.9,29,50,29z"/>
	<path d="M24.9,65h50.1c2.2,0,3.9-1.8,3.9-3.9C79,48.9,69.1,39,56.9,39H43.1C30.9,39,21,48.9,21,61.1C21,63.2,22.8,65,24.9,65z
		 M43.1,43h13.9c9.9,0,18,8.1,18.1,18H25C25,51.1,33.1,43,43.1,43z"/>
	<path d="M27.3,78.7l-5.5-0.8c-0.2,0-0.4-0.2-0.5-0.4l-2.5-5.3c-0.3-0.7-1-1.2-1.8-1.2s-1.5,0.4-1.8,1.2l-2.5,5.3
		c-0.1,0.2-0.3,0.4-0.5,0.4l-5.5,0.8C6,78.8,5.3,79.3,5.1,80S5,81.5,5.6,82l4,4.2c0.2,0.2,0.2,0.4,0.2,0.6l-1,5.9
		c-0.1,0.8,0.2,1.5,0.8,2c0.6,0.4,1.4,0.5,2.1,0.1l4.9-2.7c0.2-0.1,0.5-0.1,0.7,0l4.9,2.7c0.3,0.2,0.6,0.2,1,0.2
		c0.4,0,0.8-0.1,1.2-0.4c0.6-0.4,0.9-1.2,0.8-2l-1-5.9c0-0.2,0-0.4,0.2-0.6l4-4.1c0.5-0.5,0.7-1.3,0.5-2S28,78.8,27.3,78.7z
		 M21.5,83.4c-1,1.1-1.5,2.6-1.3,4l0.3,1.8l-1.3-0.7c-1.4-0.8-3.1-0.8-4.5,0l-1.3,0.7l0.3-1.8c0.2-1.5-0.2-3-1.3-4L11.1,82l1.6-0.2
		c1.6-0.2,2.9-1.2,3.5-2.6l0.7-1.4l0.7,1.4c0.7,1.4,2,2.4,3.5,2.6l1.6,0.3L21.5,83.4z"/>
	<path d="M60.3,78.7l-5.5-0.8c-0.2,0-0.4-0.2-0.5-0.4l-2.5-5.3c-0.3-0.7-1-1.2-1.8-1.2s-1.5,0.4-1.8,1.2l-2.5,5.3
		c-0.1,0.2-0.3,0.4-0.5,0.4l-5.5,0.8c-0.7,0.1-1.4,0.6-1.6,1.3s-0.1,1.5,0.5,2l4,4.2c0.2,0.2,0.2,0.4,0.2,0.6l-1,5.9
		c-0.1,0.8,0.2,1.5,0.8,2c0.6,0.4,1.4,0.5,2.1,0.1l4.9-2.7c0.2-0.1,0.5-0.1,0.7,0l4.9,2.7c0.3,0.2,0.6,0.2,1,0.2
		c0.4,0,0.8-0.1,1.2-0.4c0.6-0.4,0.9-1.2,0.8-2l-1-5.9c0-0.2,0-0.4,0.2-0.6l4-4.1c0.5-0.5,0.7-1.3,0.5-2
		C61.7,79.3,61,78.8,60.3,78.7z M54.5,83.4c-1,1.1-1.5,2.6-1.3,4l0.3,1.8l-1.3-0.7C51.6,88.2,50.8,88,50,88s-1.6,0.2-2.3,0.6
		l-1.3,0.7l0.3-1.8c0.2-1.5-0.2-3-1.3-4L44.1,82l1.6-0.2c1.6-0.2,2.9-1.2,3.5-2.6l0.7-1.4l0.7,1.4c0.7,1.4,2,2.4,3.5,2.6l1.6,0.3
		L54.5,83.4z"/>
	<path d="M94.4,82c0.5-0.5,0.7-1.3,0.5-2c-0.2-0.7-0.9-1.2-1.6-1.3l-5.5-0.8c-0.2,0-0.4-0.2-0.5-0.4l-2.5-5.3
		c-0.3-0.7-1-1.2-1.8-1.2s-1.5,0.4-1.8,1.2l-2.5,5.3c-0.1,0.2-0.3,0.4-0.5,0.4l-5.5,0.8c-0.7,0.1-1.4,0.6-1.6,1.3
		c-0.2,0.7-0.1,1.5,0.5,2l4,4.1c0.2,0.2,0.2,0.4,0.2,0.6l-1,5.9c-0.1,0.8,0.2,1.5,0.8,2c0.6,0.4,1.4,0.5,2.1,0.1l4.9-2.7
		c0.2-0.1,0.5-0.1,0.7,0l4.9,2.7c0.3,0.2,0.6,0.2,1,0.2c0.4,0,0.8-0.1,1.2-0.4c0.6-0.4,0.9-1.2,0.8-2l-1-5.9c0-0.2,0-0.4,0.2-0.6
		L94.4,82z M87.5,83.4c-1,1.1-1.5,2.6-1.3,4l0.3,1.8l-1.3-0.7C84.6,88.2,83.8,88,83,88s-1.6,0.2-2.3,0.6l-1.3,0.7l0.3-1.8
		c0.2-1.5-0.2-3-1.3-4L77.1,82l1.6-0.2c1.6-0.2,2.9-1.2,3.5-2.6l0.7-1.4l0.7,1.4c0.7,1.4,2,2.4,3.5,2.6l1.6,0.3L87.5,83.4z"/>
</g>
</svg>
