<?xml version="1.0" encoding="utf-8"?>
<!-- Generator: Adobe Illustrator 21.0.2, SVG Export Plug-In . SVG Version: 6.00 Build 0)  -->
<svg version="1.1" id="Layer_1" xmlns="http://www.w3.org/2000/svg" xmlns:xlink="http://www.w3.org/1999/xlink" x="0px" y="0px"
	 viewBox="0 0 100 100" style="enable-background:new 0 0 100 100;" xml:space="preserve">
<g>
	<path d="M90.5,53.9h-3.8c-1.6,0-3.2,0.8-4.2,2.1l-0.1,0.1c-0.9,1.2-2.4,3.2-4.5,5.1l-14.3-16l0.6,0c1.1,0.1,2-0.8,2.1-1.9
		c0-0.4-0.1-0.8-0.3-1.2c-0.3-0.5-0.9-0.9-1.5-0.9L59.4,41c-0.9,0-1.8,0.2-2.5,0.7c-1.3,0.9-4.5,3.3-7.7,6.4
		c-0.6,0.6-1.1,1.1-1.8,1.5c-1.6,1.2-3.7,1.4-5.5,0.8c-1.6-0.6-2.8-1.7-3.4-3.2c3-2.8,12.1-11.6,13.7-13.2c1-1.1,3.4-1.5,4.2-1.6
		h10.2l17.3-1.7l3.9-0.4c1.1-0.1,1.9-1.1,1.8-2.2c-0.1-1.1-1.1-1.9-2.2-1.8l-20.9,2.1H56.2l-0.2,0c-0.5,0-4.4,0.4-6.8,2.8
		c-0.2,0.2-0.4,0.4-0.7,0.7c-0.9-0.2-1.8-0.3-2.8-0.3c-2.2,0-5.2,0-7.4,0c-1.6,0-3.3-0.1-4.9-0.3l-19.8-2c-1.1-0.1-2.1,0.7-2.2,1.8
		c-0.1,1.1,0.7,2.1,1.8,2.2l19.8,2c1.8,0.2,3.5,0.3,5.3,0.3c1.9,0,4.4,0,6.4,0c-4.3,4.1-9.9,9.5-10,9.6L34,45.9l0.2,1.1
		c0,0,0,0.1,0.1,0.4c0.9,3.1,3.1,5.6,6.2,6.7c1.1,0.4,2.2,0.6,3.4,0.6c2,0,4.1-0.6,5.8-1.8c0.8-0.5,1.5-1.2,2.3-1.9
		c2.5-2.5,5-4.4,6.4-5.5l18.2,20.3c0.7,1.7,0.6,3.1-0.2,4c-0.6,0.7-1.7,1.2-2.7,1.2c-0.6,0-1.1-0.1-1.4-0.4l-2-2
		c-0.8-0.8-2-0.8-2.8,0c-0.8,0.8-0.8,2,0,2.8l2,2c0.5,0.5,0.5,1.1,0.5,1.5c-0.1,0.8-0.5,1.5-1.1,2.2c-1.2,1.2-2.9,1.5-3.7,0.7
		l-2.1-2c-0.8-0.8-2-0.8-2.8,0c-0.8,0.8-0.8,2,0,2.8l2,2c0.5,0.5,0.6,1.1,0.5,1.5c0,0.7-0.4,1.4-1,2c-1.2,1.2-2.9,1.5-3.7,0.7
		c0,0,0,0,0,0l-2.1-2.1c-0.8-0.8-2-0.8-2.8,0c-0.8,0.8-0.8,2.1,0,2.8l1.9,1.9c0.8,1.2,0.5,1.6,0,2.2c-0.4,0.5-1.2,0.8-1.9,0.8
		c-0.4,0-0.8,0-1.1-0.2c0.3-0.7,0.4-1.5,0.4-2.2c0-2.8-1.8-5.1-4.3-6c-0.4-3.5-3.2-6.4-6.8-6.7c-0.4-3.5-3.2-6.3-6.8-6.7
		c-0.4-3.8-3.7-6.7-7.6-6.7c-0.2,0-0.5,0-0.7,0l-0.6-0.7c-0.9-1-2.2-1.6-3.6-1.6H9.5c-1.1,0-2,0.9-2,2c0,1.1,0.9,2,2,2h12.7
		c-1.7,1.4-2.8,3.5-2.8,5.8c0,3.9,3,7.1,6.9,7.5c0.4,3.5,3.2,6.3,6.8,6.7c0.4,3.5,3.3,6.3,6.9,6.7c0.9,2.5,3.3,4.2,6.1,4.2
		c1.3,0,2.6-0.4,3.6-1.1c1,0.7,2.1,1.1,3.5,1.1c0.1,0,0.2,0,0.4,0c1.9-0.1,3.7-1,4.8-2.3c0.8-1,1.2-2,1.3-3c1.8-0.1,3.6-0.8,5.1-2.3
		c1.3-1.3,2.1-2.9,2.2-4.6v-0.2c1.7-0.1,3.4-0.9,4.8-2.2c1.4-1.4,2.2-3.2,2.3-5c2.1-0.1,4.1-1.1,5.5-2.6c1.8-2.1,2.1-4.9,0.9-8
		c2.5-2.2,4.2-4.5,5.2-5.9l0.1-0.1c0.2-0.3,0.6-0.5,1-0.5h3.8c1.1,0,2-0.9,2-2C92.5,54.8,91.6,53.9,90.5,53.9z M46.2,90.6
		c-1.4,0-2.5-1-2.5-2.3c0-0.6-0.3-1.1-0.7-1.5c-0.4-0.3-0.8-0.5-1.3-0.5c-0.1,0-0.2,0-0.3,0c-0.2,0-0.4,0.1-0.5,0.1
		c-2,0-3.7-1.6-3.7-3.6c0-0.2,0-0.5,0.1-0.8c0.2-0.7,0-1.4-0.5-1.9c-0.5-0.5-1.2-0.7-1.9-0.5c-0.3,0.1-0.6,0.1-0.8,0.1
		c-2,0-3.7-1.6-3.7-3.5c0-0.2,0-0.5,0.1-0.8c0.2-0.7,0-1.4-0.5-1.9S28.7,72.8,28,73c-0.3,0.1-0.6,0.1-0.8,0.1c-2,0-3.7-1.6-3.7-3.6
		s1.7-3.5,3.7-3.5c2,0,3.7,1.6,3.7,3.5c0,0.2,0,0.5-0.1,0.8c-0.2,0.7,0,1.4,0.5,1.9c0.5,0.5,1.2,0.7,1.9,0.5
		c0.3-0.1,0.6-0.1,0.9-0.1c2,0,3.7,1.6,3.7,3.6c0,0.2,0,0.5-0.1,0.8c-0.2,0.7,0,1.4,0.5,1.9c0.5,0.5,1.2,0.7,1.9,0.5
		c0.3-0.1,0.6-0.1,0.9-0.1c2,0,3.7,1.6,3.7,3.5c0,0.2,0,0.4-0.1,0.5v0c-0.1,0.6,0.1,1.1,0.4,1.6s0.9,0.7,1.5,0.7
		c1.4,0.1,2.4,1.1,2.4,2.4C48.7,89.5,47.6,90.6,46.2,90.6z"/>
	<path d="M40.1,13.5l2,5.4c0.3,0.8,1.1,1.3,1.9,1.3c0.2,0,0.5,0,0.7-0.1c1-0.4,1.6-1.5,1.2-2.6l-2-5.4c-0.4-1-1.5-1.6-2.6-1.2
		C40.3,11.3,39.7,12.5,40.1,13.5z"/>
	<path d="M26.7,23.7c0.4,0.7,1,1,1.7,1c0.3,0,0.7-0.1,1-0.3c1-0.5,1.3-1.8,0.8-2.7l-3.6-6.4c-0.5-1-1.8-1.3-2.7-0.8
		s-1.3,1.8-0.8,2.7L26.7,23.7z"/>
	<path d="M55.2,20.1c0.2,0.1,0.5,0.1,0.7,0.1c0.8,0,1.6-0.5,1.9-1.3l3.9-10.8c0.4-1-0.2-2.2-1.2-2.6c-1-0.4-2.2,0.2-2.6,1.2L54,17.5
		C53.6,18.5,54.1,19.7,55.2,20.1z"/>
	<path d="M70.4,24.4c0.3,0.2,0.6,0.3,1,0.3c0.7,0,1.4-0.4,1.7-1l0.7-1.3c0.5-1,0.2-2.2-0.8-2.7c-1-0.5-2.2-0.2-2.7,0.8l-0.7,1.3
		C69.1,22.7,69.4,23.9,70.4,24.4z"/>
	<path d="M40,9.4c1.1,0,2-0.9,2-2s-0.9-2-2-2h0c-1.1,0-2,0.9-2,2S38.9,9.4,40,9.4z"/>
	<path d="M74.9,18.3c1.1,0,2-0.9,2-2s-0.9-2-2-2h0c-1.1,0-2,0.9-2,2S73.8,18.3,74.9,18.3z"/>
</g>
</svg>
