<?xml version="1.0" encoding="utf-8"?>
<!-- Generator: Adobe Illustrator 21.0.2, SVG Export Plug-In . SVG Version: 6.00 Build 0)  -->
<svg version="1.1" id="Layer_1" xmlns="http://www.w3.org/2000/svg" xmlns:xlink="http://www.w3.org/1999/xlink" x="0px" y="0px"
	 viewBox="0 0 100 100" style="enable-background:new 0 0 100 100;" xml:space="preserve">
<path d="M95,68.5v9c0,4.7-2.9,8.8-7,10.6V89c0,1.1-0.9,2-2,2H72c-1.1,0-2-0.9-2-2V57c0-1.1,0.9-2,2-2h2V43c0-13.2-10.8-24-24-24
	S26,29.8,26,43v12h2c1.1,0,2,0.9,2,2v32c0,1.1-0.9,2-2,2H14c-1.1,0-2-0.9-2-2v-0.9c-4.1-1.8-7-5.8-7-10.6v-9c0-4.7,2.9-8.8,7-10.6
	V57c0-1.1,0.9-2,2-2h2V43C16,24.3,31.3,9,50,9c18.7,0,34,15.3,34,34v12h2c1.1,0,2,0.9,2,2v0.9C92.1,59.7,95,63.8,95,68.5z"/>
</svg>
