<?xml version="1.0" encoding="utf-8"?>
<!-- Generator: Adobe Illustrator 21.0.2, SVG Export Plug-In . SVG Version: 6.00 Build 0)  -->
<svg version="1.1" id="Layer_1" xmlns="http://www.w3.org/2000/svg" xmlns:xlink="http://www.w3.org/1999/xlink" x="0px" y="0px"
	 viewBox="0 0 100 100" style="enable-background:new 0 0 100 100;" xml:space="preserve">
<path d="M90.3,32.6l-33-25.1C55.1,5.8,52.6,5,50,5c-2.6,0-5.1,0.8-7.3,2.5l-33,25.1c-9,6.9-4.3,21.3,7,21.5V83c0,6.6,5.4,12,12,12
	h42.5c6.6,0,12-5.4,12-12V54.1C94.5,53.9,99.3,39.5,90.3,32.6z M88.7,44.1C88.4,45,87,48,83.3,48.1c-0.1,0-0.2,0-0.3,0h-2.7h-3H22.7
	h-3H17c-0.1,0-0.2,0-0.3,0C13,48,11.6,45,11.3,44.1c-0.3-1-1.1-4.3,2-6.7l33-25.1c1-0.8,2.3-1.2,3.6-1.2c1.3,0,2.6,0.4,3.6,1.2
	l33,25.1C89.8,39.8,89,43.1,88.7,44.1z M77.3,83c0,3.3-2.7,6-6,6H65V75c0-6.6-5.4-12-12-12h-6c-6.6,0-12,5.4-12,12v14h-6.3
	c-3.3,0-6-2.7-6-6V54.1h54.5V83z M61,89H39V75c0-4.4,3.6-8,8-8h6c4.4,0,8,3.6,8,8V89z"/>
</svg>
