<?xml version="1.0" encoding="utf-8"?>
<!-- Generator: Adobe Illustrator 21.0.2, SVG Export Plug-In . SVG Version: 6.00 Build 0)  -->
<svg version="1.1" id="Layer_1" xmlns="http://www.w3.org/2000/svg" xmlns:xlink="http://www.w3.org/1999/xlink" x="0px" y="0px"
	 viewBox="0 0 100 100" style="enable-background:new 0 0 100 100;" xml:space="preserve">
<path d="M88.3,57.3c0.1,0.1,0.2,0.2,0.2,0.3c0.1,0.1,0.1,0.2,0.2,0.3c0.1,0.1,0.1,0.2,0.1,0.4c0,0.1,0,0.3,0,0.4
	c0,0.5-0.2,1-0.6,1.4s-0.9,0.6-1.4,0.6c-0.5,0-1-0.2-1.4-0.6c-0.4-0.4-0.6-0.9-0.6-1.4c0-0.1,0-0.3,0-0.4c0-0.1,0.1-0.3,0.1-0.4
	s0.1-0.2,0.2-0.3c0.1-0.1,0.2-0.2,0.2-0.3C86.2,56.6,87.6,56.6,88.3,57.3z M60.2,40.7h3h2c0.5,0,1,0.5,1,1c0,1.1,0.9,2,2,2
	s2-0.9,2-2c0-2.8-2.2-5-5-5h0v-2c0-1.1-0.9-2-2-2s-2,0.9-2,2v2h-1c-2.8,0-5,2.2-5,5v3c0,2.6,2,4.8,4.6,5c0.1,0,0.3,0,0.4,0h5
	c0.5,0,1,0.5,1,1v3c0,0.5-0.5,1-1,1h-2h-3c-0.5,0-1-0.5-1-1c0-1.1-0.9-2-2-2s-2,0.9-2,2c0,2.8,2.2,5,5,5h1v2c0,1.1,0.9,2,2,2
	s2-0.9,2-2v-2h0c2.8,0,5-2.2,5-5v-3c0-2.6-2-4.8-4.6-5c-0.1,0-0.3,0-0.4,0h-5c-0.5,0-1-0.5-1-1v-3C59.1,41.2,59.6,40.7,60.2,40.7z
	 M91.8,75.2L70.4,88.1c-2.6,1.6-5.2,2.9-7.9,3.9c-1.9,0.8-2.6,0.9-3.1,1l-0.3,0c-0.5,0.1-1,0.1-1.6,0.1c-1.6,0-3.8-0.5-8.3-2.6
	C42.9,87.7,36.2,85,36.1,85l-0.2-0.1l-0.2-0.2c0,0-2.3-1.4-7.2,1c-3.9,1.9-8.2,4.1-11.2,5.7c-1.2,0.6-2.5,0.7-3.8,0.2
	c-1.2-0.5-2.1-1.5-2.5-2.8L5.2,70.2c-0.3-1.1-0.2-2.3,0.3-3.4c0.6-1,1.5-1.8,2.6-2.2l20.2-6.2c2.7-0.8,5.4-1.3,7.9-1.4h0.2v-7.7
	c0-11,7.8-20.2,18.2-22.3v-4.3c0,0-0.1-0.1-0.1-0.1l-5-7.4l0,0c0,0,0-0.1-0.1-0.1c0-0.1-0.1-0.1-0.1-0.2c0-0.1,0-0.1-0.1-0.2
	s0-0.1-0.1-0.2c0-0.1,0-0.1,0-0.2c0-0.1,0-0.1,0-0.2c0-0.1,0-0.1,0-0.2c0-0.1,0-0.1,0-0.2s0-0.1,0-0.2c0-0.1,0-0.1,0.1-0.2
	c0-0.1,0.1-0.1,0.1-0.2c0-0.1,0-0.1,0.1-0.2c0-0.1,0.1-0.2,0.2-0.2c0,0,0-0.1,0.1-0.1l0,0h0l5-5.3c0,0,0,0,0,0
	c0.1-0.1,0.1-0.1,0.2-0.2c0,0,0.1-0.1,0.1-0.1c0.1,0,0.1-0.1,0.2-0.1c0,0,0.1,0,0.1-0.1c0.1,0,0.1,0,0.2-0.1c0.1,0,0.1,0,0.2,0
	c0.1,0,0.1,0,0.2,0c0.1,0,0.1,0,0.2,0c0.1,0,0.1,0,0.2,0c0.1,0,0.1,0,0.2,0s0.1,0,0.2,0c0.1,0,0.1,0,0.2,0.1C56.9,7,57,7,57,7
	c0.1,0,0.1,0.1,0.2,0.1h0l5.4,3.5L68,7.1c0,0,0,0,0,0C68.1,7.1,68.2,7,68.3,7c0,0,0.1,0,0.1,0c0.1,0,0.2,0,0.3-0.1c0,0,0.1,0,0.1,0
	c0.1,0,0.2,0,0.3,0c0,0,0.1,0,0.1,0c0.1,0,0.2,0,0.3,0c0,0,0.1,0,0.1,0c0.1,0,0.2,0,0.2,0.1c0,0,0.1,0,0.1,0C70,7,70,7,70.1,7.1
	c0.1,0,0.1,0.1,0.2,0.1c0,0,0.1,0.1,0.1,0.1c0.1,0,0.1,0.1,0.2,0.2c0,0,0,0,0,0l5,5.3l0,0c0,0,0,0,0,0.1c0.1,0.1,0.1,0.1,0.2,0.2
	c0,0,0,0.1,0.1,0.1c0,0.1,0.1,0.1,0.1,0.2c0,0.1,0,0.1,0.1,0.2c0,0.1,0,0.1,0,0.2s0,0.1,0,0.2c0,0.1,0,0.1,0,0.2c0,0.1,0,0.1,0,0.2
	c0,0.1,0,0.1,0,0.2c0,0.1,0,0.1,0,0.2c0,0.1,0,0.1-0.1,0.2c0,0.1-0.1,0.1-0.1,0.2c0,0,0,0.1-0.1,0.1l0,0l-5,7.4c0,0-0.1,0.1-0.1,0.1
	v4.4c10.2,2.3,17.8,11.4,17.8,22.2v3.3c0,1.1-0.9,2-2,2c-1.1,0-2-0.9-2-2v-3.3c0-10.3-8.4-18.8-18.8-18.8h-6.5
	c-10.4,0-18.8,8.4-18.8,18.8v8c0.5,0.1,1.1,0.2,1.5,0.4c3.9,1.3,8.4,3.8,9.2,4.2l3.9,1.7c0.1,0,3,1.3,6.1,0.5
	c2.7-0.7,5.4,0.3,7.7,2.9c0.3,0.3,0.5,0.7,0.7,1l18.1-5.5l0.2,0c2.2-0.1,6.6,0.8,7,5.3C95.3,71.9,93.1,74.4,91.8,75.2z M66.7,22.7
	h-8v4h8V22.7z M56.7,18.7h12l3-4.4l-2.8-2.9l-5.1,3.3c0,0,0,0-0.1,0c-0.1,0.1-0.2,0.1-0.3,0.2c-0.1,0-0.1,0-0.2,0.1
	C63,15,62.8,15,62.7,15c0,0,0,0,0,0h0c-0.2,0-0.3,0-0.5-0.1c0,0-0.1,0-0.2-0.1c-0.1,0-0.2-0.1-0.3-0.2c0,0,0,0-0.1,0l-5.1-3.3
	l-2.8,2.9L56.7,18.7z M91,68.3c-0.1-1.6-2-1.7-2.6-1.7l-18,5.5c-0.1,0.3-0.2,0.7-0.3,1c-0.5,1.2-2.5,2.8-2.6,2.8
	c-1.9,1.4-4.6,2.3-5,2.5c-0.7,0.3-4.7,1.7-8,1c-3-0.7-9.4-3.1-9.6-3.2c-1-0.4-1.5-1.5-1.2-2.6c0.4-1,1.5-1.6,2.6-1.2
	c0.1,0,6.3,2.4,9.1,3c1.9,0.4,4.7-0.5,5.7-0.8l0.1,0c0,0,2.5-0.8,4-1.9c0.4-0.3,1.1-0.9,1.4-1.2c0-0.1,0-0.2,0.1-0.3
	c-0.1-0.2-0.1-0.4-0.1-0.6c-0.1-0.3-0.2-0.6-0.5-0.8c-0.9-1-2.2-2.1-3.6-1.7c-4.6,1.2-8.6-0.6-8.8-0.7l-4.2-1.8c0,0-4.7-2.7-8.5-4
	c-1.1-0.4-2.6-0.5-4.4-0.5c-2.2,0.1-4.5,0.5-6.9,1.2L9.3,68.5c-0.2,0-0.2,0.1-0.3,0.2C9,68.8,9,68.9,9,69l5.7,18.5
	c0,0.2,0.2,0.2,0.2,0.3c0.1,0,0.2,0.1,0.4,0c3-1.6,7.4-3.8,11.3-5.8c6.4-3.1,10.1-1.4,11.2-0.8c1.1,0.5,7.3,3,13.1,5.6
	c5.5,2.5,6.5,2.3,7.7,2.1l0.3,0c0.1,0,0.5-0.1,2.2-0.7c2.4-1,4.9-2.2,7.3-3.6l21.3-12.9C89.8,71.7,91.2,70.7,91,68.3z"/>
</svg>
