<?xml version="1.0" encoding="utf-8"?>
<!-- Generator: Adobe Illustrator 21.0.2, SVG Export Plug-In . SVG Version: 6.00 Build 0)  -->
<svg version="1.1" id="Layer_1" xmlns="http://www.w3.org/2000/svg" xmlns:xlink="http://www.w3.org/1999/xlink" x="0px" y="0px"
	 viewBox="0 0 100 100" style="enable-background:new 0 0 100 100;" xml:space="preserve">
<g>
	<rect x="42" y="51" width="20" height="2"/>
	<path d="M90.8,53.9h-5.4c-1.6-3.9-4.5-7.5-8.4-10.4c-0.9-1.5,0.1-7.4,1.7-11.9c0.2-0.7,0.1-1.5-0.4-2c-0.5-0.5-1.3-0.8-2-0.6
		c-0.4,0.1-8.5,2.2-13,9.6c-0.5,0-1.1,0-1.6,0H49.3c-12,0-22.1,8.1-24.6,19c-1.1-1-2.3-2.4-2.6-4.2c-0.6-2.9,1.7-4.1,2.1-4.3
		c1-0.4,1.5-1.6,1.1-2.6c-0.4-1-1.6-1.5-2.6-1.1c-2,0.8-5.6,3.7-4.6,8.8c0.9,4.2,4.2,6.8,6,7.9c0,0.2,0,0.5,0,0.7
		c0,7,3.2,13.6,8.7,18.3l-1.4,6.4c-0.3,1.4,0,2.8,0.8,4c0.8,1.2,2.1,2.1,3.6,2.4l5.2,1c0.4,0.1,0.7,0.1,1.1,0.1
		c2.6,0,4.9-1.8,5.5-4.3l0.8-3.8c0.3,0,0.6,0,0.9,0h12.5c0.3,0,0.6,0,0.9,0l0.8,3.8c0.6,2.9,3.6,4.8,6.5,4.2l5.2-1
		c1.5-0.3,2.8-1.1,3.6-2.4c0.8-1.2,1.1-2.6,0.8-4L78.3,81c2.6-2.1,4.7-4.8,6.2-7.7l6.4,0c2.3,0,4.2-1.9,4.2-4.2v-11
		C95,55.8,93.1,53.9,90.8,53.9z M66,55c0,1.1-0.9,2-2,2H40c-1.1,0-2-0.9-2-2v-6c0-1.1,0.9-2,2-2h24c1.1,0,2,0.9,2,2V55z"/>
	<path d="M43,24c0-10.5-8.5-19-19-19S5,13.5,5,24s8.5,19,19,19S43,34.5,43,24z M10.7,24c0-7.4,6-13.3,13.3-13.3S37.3,16.6,37.3,24
		c0,7.3-6,13.3-13.3,13.3S10.7,31.3,10.7,24z"/>
	<path d="M33.3,24c0-5.1-4.2-9.3-9.3-9.3s-9.3,4.2-9.3,9.3s4.2,9.3,9.3,9.3S33.3,29.1,33.3,24z M22.1,31.1c-1.4-0.3-2.3-0.8-2.4-0.9
		c-1-0.5-1.3-1.8-0.8-2.7c0.5-0.9,1.6-1.3,2.6-0.8c0,0,0.1,0,0.2,0.1c0,0,0.9,0.5,2.1,0.6c0.5,0.1,1-0.1,1.2-0.3
		c0.1,0,0.2-0.2,0.2-0.3c0,0,0,0-0.1-0.1c-0.1-0.1-0.3-0.3-0.8-0.4l-2-0.7c-0.1,0-0.1,0-0.2-0.1C21.2,25,20.5,24.5,20,24
		c-0.8-0.9-1.2-1.9-1.2-3c0.1-1.2,0.6-2.3,1.6-3.1c0.5-0.4,1-0.7,1.7-1c0.2-0.9,1-1.6,2-1.6c0.9,0,1.7,0.6,1.9,1.5
		c1.3,0.3,2.2,0.8,2.3,0.9c1,0.5,1.3,1.8,0.8,2.7c-0.5,0.9-1.6,1.3-2.6,0.8c0,0-0.1,0-0.2-0.1c0,0-0.9-0.5-2.1-0.6
		c-0.5-0.1-1,0.1-1.2,0.3c-0.1,0.1-0.2,0.2-0.2,0.3c0,0,0,0,0.1,0.1c0.1,0.1,0.3,0.2,0.7,0.4l2,0.7c0,0,0.1,0,0.1,0l0,0c0,0,0,0,0,0
		c0,0,0.1,0,0.1,0c0.9,0.3,1.6,0.8,2.1,1.4c0.8,0.9,1.2,1.9,1.2,3.1c-0.1,1.2-0.6,2.3-1.6,3.1c-0.5,0.4-1,0.7-1.6,0.9
		c-0.2,0.9-1,1.6-2,1.6C23.1,32.6,22.3,31.9,22.1,31.1z"/>
</g>
</svg>
