<?xml version="1.0" encoding="utf-8"?>
<!-- Generator: Adobe Illustrator 21.0.2, SVG Export Plug-In . SVG Version: 6.00 Build 0)  -->
<svg version="1.1" id="Layer_1" xmlns="http://www.w3.org/2000/svg" xmlns:xlink="http://www.w3.org/1999/xlink" x="0px" y="0px"
	 viewBox="0 0 100 100" style="enable-background:new 0 0 100 100;" xml:space="preserve">
<path d="M95,52.7v36.6c0,3.1-2.6,5.7-5.8,5.7H81c-1.1,0-2-0.9-2-2s0.9-2,2-2h8.2c1,0,1.8-0.8,1.8-1.7V52.7c0-0.9-0.8-1.7-1.8-1.7
	H10.8c-1,0-1.8,0.8-1.8,1.7v36.6c0,0.9,0.8,1.7,1.8,1.7H67c1.1,0,2,0.9,2,2s-0.9,2-2,2H10.8C7.6,95,5,92.5,5,89.3V52.7
	c0-3.1,2.6-5.7,5.8-5.7h78.3C92.4,47,95,49.6,95,52.7z M48.2,64.3h1.6c1.6,0,2.9,1.3,2.9,2.9c0,1.1,0.9,2,2,2s2-0.9,2-2
	c0-3.4-2.5-6.2-5.7-6.8V59c0-1.1-0.9-2-2-2s-2,0.9-2,2v1.4c-3.2,0.6-5.7,3.4-5.7,6.8c0,3.8,3.1,6.9,6.9,6.9h1.6
	c1.6,0,2.9,1.3,2.9,2.9c0,1.6-1.3,2.9-2.9,2.9h-1.6c-1.6,0-2.9-1.3-2.9-2.9c0-1.1-0.9-2-2-2s-2,0.9-2,2c0,3.4,2.5,6.2,5.7,6.8V85
	c0,1.1,0.9,2,2,2s2-0.9,2-2v-1.4c3.2-0.6,5.7-3.4,5.7-6.8c0-3.8-3.1-6.9-6.9-6.9h-1.6c-1.6,0-2.9-1.3-2.9-2.9S46.6,64.3,48.2,64.3z
	 M14,71c0-3.3,2.7-6,6-6c3.3,0,6,2.7,6,6s-2.7,6-6,6C16.7,77,14,74.3,14,71z M18,71c0,1.1,0.9,2,2,2c1.1,0,2-0.9,2-2s-0.9-2-2-2
	C18.9,69,18,69.9,18,71z M86,71c0,3.3-2.7,6-6,6s-6-2.7-6-6s2.7-6,6-6S86,67.7,86,71z M82,71c0-1.1-0.9-2-2-2s-2,0.9-2,2s0.9,2,2,2
	S82,72.1,82,71z M25,55H15c-1.1,0-2,0.9-2,2s0.9,2,2,2h10c1.1,0,2-0.9,2-2S26.1,55,25,55z M34,55c0-1.1-0.9-2-2-2s-2,0.9-2,2v4
	c0,1.1,0.9,2,2,2s2-0.9,2-2V55z M40,61c1.1,0,2-0.9,2-2v-4c0-1.1-0.9-2-2-2s-2,0.9-2,2v4C38,60.1,38.9,61,40,61z M13,85
	c0,1.1,0.9,2,2,2h10c1.1,0,2-0.9,2-2s-0.9-2-2-2H15C13.9,83,13,83.9,13,85z M32,81c-1.1,0-2,0.9-2,2v4c0,1.1,0.9,2,2,2s2-0.9,2-2v-4
	C34,81.9,33.1,81,32,81z M38,87c0,1.1,0.9,2,2,2s2-0.9,2-2v-4c0-1.1-0.9-2-2-2s-2,0.9-2,2V87z M75,87h10c1.1,0,2-0.9,2-2s-0.9-2-2-2
	H75c-1.1,0-2,0.9-2,2S73.9,87,75,87z M68,81c-1.1,0-2,0.9-2,2v4c0,1.1,0.9,2,2,2s2-0.9,2-2v-4C70,81.9,69.1,81,68,81z M60,81
	c-1.1,0-2,0.9-2,2v4c0,1.1,0.9,2,2,2s2-0.9,2-2v-4C62,81.9,61.1,81,60,81z M87,57c0-1.1-0.9-2-2-2H75c-1.1,0-2,0.9-2,2s0.9,2,2,2h10
	C86.1,59,87,58.1,87,57z M68,53c-1.1,0-2,0.9-2,2v4c0,1.1,0.9,2,2,2s2-0.9,2-2v-4C70,53.9,69.1,53,68,53z M62,55c0-1.1-0.9-2-2-2
	s-2,0.9-2,2v4c0,1.1,0.9,2,2,2s2-0.9,2-2V55z M75.8,92.2c0-0.1-0.1-0.2-0.2-0.3c-0.1-0.1-0.2-0.2-0.2-0.3c-0.1-0.1-0.2-0.2-0.3-0.2
	s-0.2-0.1-0.3-0.2c-0.1,0-0.2-0.1-0.4-0.1c-0.3,0-0.5,0-0.8,0c-0.1,0-0.2,0.1-0.4,0.1c-0.1,0.1-0.2,0.1-0.3,0.2
	c-0.1,0.1-0.2,0.2-0.3,0.2c-0.1,0.1-0.2,0.2-0.2,0.3c-0.1,0.1-0.1,0.2-0.2,0.3S72,92.5,72,92.6c0,0.1,0,0.3,0,0.4
	c0,0.5,0.2,1,0.6,1.4C73,94.8,73.5,95,74,95c0.5,0,1-0.2,1.4-0.6C75.8,94,76,93.5,76,93c0-0.1,0-0.3,0-0.4
	C75.9,92.5,75.9,92.3,75.8,92.2z M39.8,33.3c0.5,0,1-0.2,1.4-0.6l1.9-1.9c0.8-0.8,0.8-2,0-2.8c-0.8-0.8-2-0.8-2.8,0l-1.9,1.9
	c-0.8,0.8-0.8,2,0,2.8C38.7,33.1,39.2,33.3,39.8,33.3z M46.6,27.4l3.6-3.6L58,30c0,0,0.1,0,0.1,0.1c0,0,0.1,0.1,0.1,0.1
	c0.1,0,0.1,0.1,0.2,0.1c0,0,0.1,0,0.1,0.1c0.1,0,0.2,0.1,0.2,0.1c0,0,0.1,0,0.1,0c0.1,0,0.2,0,0.4,0c0,0,0,0,0,0s0,0,0,0
	c0.1,0,0.3,0,0.4,0c0,0,0.1,0,0.1,0c0.1,0,0.2-0.1,0.3-0.1c0,0,0.1,0,0.1-0.1c0.1,0,0.1-0.1,0.2-0.1c0,0,0.1-0.1,0.1-0.1
	c0,0,0.1-0.1,0.1-0.1l18-18v3.7c0,1.1,0.9,2,2,2s2-0.9,2-2V7c0-1.1-0.9-2-2-2h-8.5c-1.1,0-2,0.9-2,2s0.9,2,2,2h3.7L59.1,25.7
	l-7.8-6.2c-0.8-0.6-2-0.6-2.7,0.2l-4.8,4.9c-0.8,0.8-0.8,2.1,0,2.8C44.6,28.2,45.8,28.2,46.6,27.4z M28.1,42.4
	c0.4,0.4,0.9,0.6,1.4,0.6c0.3,0,0.6-0.1,0.9-0.2c0.3-0.1,0.5-0.2,0.8-0.5l6.1-6.1c0.8-0.8,0.8-2,0-2.8c-0.8-0.8-2-0.8-2.8,0
	l-4.9,4.9L23,31.6c-0.8-0.8-2-0.8-2.8,0c-0.8,0.8-0.8,2,0,2.8L28.1,42.4z"/>
</svg>
