<?xml version="1.0" encoding="utf-8"?>
<!-- Generator: Adobe Illustrator 21.0.2, SVG Export Plug-In . SVG Version: 6.00 Build 0)  -->
<svg version="1.1" id="Layer_1" xmlns="http://www.w3.org/2000/svg" xmlns:xlink="http://www.w3.org/1999/xlink" x="0px" y="0px"
	 viewBox="0 0 100 100" style="enable-background:new 0 0 100 100;" xml:space="preserve">
<path d="M94,5H6C4.9,5,4,5.9,4,7v86c0,1.1,0.9,2,2,2h88c1.1,0,2-0.9,2-2V7C96,5.9,95.1,5,94,5z M92,17H64V9h28V17z M60,9v8H8V9H60z
	 M8,91V21h84v70H8z M84,13.4c0-0.1,0-0.3,0-0.4c0-0.1,0-0.3,0-0.4c0-0.1,0.1-0.2,0.1-0.4c0.1-0.1,0.1-0.2,0.2-0.3
	c0.1-0.1,0.2-0.2,0.2-0.3c0.1-0.1,0.2-0.2,0.3-0.2c0.1-0.1,0.2-0.1,0.3-0.2c0.1-0.1,0.2-0.1,0.4-0.1c0.7-0.1,1.3,0.1,1.8,0.5
	c0.1,0.1,0.2,0.2,0.2,0.3c0.1,0.1,0.1,0.2,0.2,0.3c0,0.1,0.1,0.2,0.1,0.4c0,0.1,0,0.3,0,0.4c0,0.1,0,0.3,0,0.4
	c0,0.1-0.1,0.2-0.1,0.4c0,0.1-0.1,0.2-0.2,0.4c-0.1,0.1-0.2,0.2-0.2,0.3C87,14.8,86.5,15,86,15s-1-0.2-1.4-0.6
	c-0.1-0.1-0.2-0.2-0.2-0.3c-0.1-0.1-0.1-0.2-0.2-0.4C84.1,13.6,84.1,13.5,84,13.4z M76.6,14.4C76.2,14,76,13.5,76,13
	c0-0.5,0.2-1,0.6-1.4c0.1-0.1,0.2-0.2,0.3-0.2c0.1-0.1,0.2-0.1,0.3-0.2c0.1-0.1,0.2-0.1,0.4-0.1c0.3-0.1,0.5-0.1,0.8,0
	c0.1,0,0.2,0.1,0.4,0.1c0.1,0,0.2,0.1,0.3,0.2c0.1,0.1,0.2,0.1,0.3,0.2C79.8,12,80,12.5,80,13c0,0.5-0.2,1-0.6,1.4
	c-0.1,0.1-0.2,0.2-0.3,0.2c-0.1,0.1-0.2,0.1-0.3,0.2c-0.1,0.1-0.2,0.1-0.4,0.1c-0.1,0-0.3,0-0.4,0s-0.3,0-0.4,0
	c-0.1,0-0.3-0.1-0.4-0.1c-0.1,0-0.2-0.1-0.3-0.2C76.8,14.6,76.7,14.5,76.6,14.4z M68,13c0-0.5,0.2-1,0.6-1.4c0.7-0.8,2.1-0.8,2.8,0
	C71.8,12,72,12.5,72,13c0,0.5-0.2,1-0.6,1.4c-0.1,0.1-0.2,0.2-0.3,0.2c-0.1,0.1-0.2,0.1-0.3,0.2c-0.1,0.1-0.2,0.1-0.4,0.1
	c-0.1,0-0.3,0-0.4,0c-0.5,0-1-0.2-1.4-0.6C68.2,14,68,13.5,68,13z M50,34c-19.9,0-36,16.1-36,36c0,1.1,0.9,2,2,2h14c1.1,0,2-0.9,2-2
	c0-9.9,8.1-18,18-18c9.9,0,18,8.1,18,18c0,1.1,0.9,2,2,2h14c1.1,0,2-0.9,2-2C86,50.1,69.9,34,50,34z M28.1,68h-10
	c0.5-7.4,3.4-14.1,8.1-19.3l7.1,7.1C30.4,59.2,28.5,63.4,28.1,68z M36.1,53L29,45.9c5.2-4.5,11.8-7.4,19-7.8v10
	C43.5,48.5,39.4,50.3,36.1,53z M52,48.1v-10c7.3,0.5,13.9,3.3,19,7.8L63.9,53C60.6,50.3,56.5,48.5,52,48.1z M71.9,68
	c-0.4-4.6-2.3-8.8-5.1-12.2l7.1-7.1c4.6,5.2,7.6,11.9,8.1,19.3H71.9z M57.6,60.6l-5,5C51.8,65.2,50.9,65,50,65c-3.3,0-6,2.7-6,6
	s2.7,6,6,6s6-2.7,6-6c0-0.9-0.2-1.8-0.6-2.6l5-5c0.8-0.8,0.8-2,0-2.8S58.4,59.8,57.6,60.6z M50,73c-1.1,0-2-0.9-2-2s0.9-2,2-2
	c1.1,0,2,0.9,2,2S51.1,73,50,73z"/>
</svg>
