<?xml version="1.0" encoding="utf-8"?>
<!-- Generator: Adobe Illustrator 21.0.2, SVG Export Plug-In . SVG Version: 6.00 Build 0)  -->
<svg version="1.1" id="Layer_1" xmlns="http://www.w3.org/2000/svg" xmlns:xlink="http://www.w3.org/1999/xlink" x="0px" y="0px"
	 viewBox="0 0 100 100" style="enable-background:new 0 0 100 100;" xml:space="preserve">
<path d="M93,91h-7.5V69.2c1-0.3,2-0.8,2.9-1.3c0.9-0.6,1.2-1.8,0.7-2.7c-0.6-0.9-1.8-1.2-2.7-0.7c-0.3,0.2-0.6,0.3-0.9,0.5V48.2
	c0-1.1-0.9-2-2-2s-2,0.9-2,2V91h-7.2V66.9c0-1.1-0.9-2-2-2s-2,0.9-2,2V91h-7.2V69.1c0.2,0,0.4,0,0.6-0.1c5.8-1.7,9.8-7.2,9.8-13.2
	V42.2c0-5.2-2.1-10-5.4-13.5c0.2,0,0.3,0,0.5,0h7.5c3.1,0,6,0.9,8.5,2.7c1.3,0.9,2.4,2,3.4,3.3c0.6,0.8,1,1.6,1.5,2.5
	c0.3,0.7,0.6,1.4,0.8,2.2c0.4,1.3,0.6,2.7,0.6,4.1v13.1c0,0.5,0,0.9-0.1,1.4c-0.1,0.5-0.2,1.1-0.4,1.6c-0.1,0.2-0.1,0.4-0.2,0.6
	c-0.4,1,0.1,2.2,1.1,2.6c0.2,0.1,0.5,0.2,0.8,0.2c0.8,0,1.5-0.5,1.8-1.2c0.1-0.3,0.2-0.5,0.3-0.8c0.3-0.8,0.5-1.6,0.6-2.3
	c0.1-0.7,0.2-1.3,0.2-2V43.5c0-1.8-0.3-3.5-0.8-5.2c-0.3-1-0.6-1.9-1.1-2.8c-0.5-1.1-1.2-2.1-1.9-3.1c-1.2-1.6-2.6-3-4.3-4.2
	c-2.1-1.5-4.5-2.5-6.9-3c1.6-1.8,2.6-4.2,2.6-6.8C82.6,12.6,78,8,72.3,8C66.7,8,62,12.6,62,18.3c0,2.6,1,5,2.6,6.8
	c-0.3,0.1-0.5,0.1-0.8,0.2C62,24.2,60.1,23.4,58,23c1.7-1.9,2.8-4.5,2.8-7.2C60.8,9.8,56,5,50,5S39.2,9.8,39.2,15.8
	c0,2.8,1.1,5.3,2.8,7.2c-2.1,0.4-4.1,1.2-5.9,2.3c-0.3-0.1-0.5-0.1-0.8-0.2c1.6-1.8,2.6-4.2,2.6-6.8C38,12.6,33.3,8,27.7,8
	C22,8,17.4,12.6,17.4,18.3c0,2.6,1,5,2.6,6.8c-8.5,1.8-14.9,9.4-14.9,18.4v13.1c0,5.8,3.8,10.9,9.3,12.6v13.7c0,1.1,0.9,2,2,2
	c1.1,0,2-0.9,2-2V48.2c0-1.1-0.9-2-2-2c-1.1,0-2,0.9-2,2v16.8c-3.2-1.5-5.3-4.8-5.3-8.4V43.5c0-8.2,6.7-14.8,14.8-14.8h7.5
	c0.2,0,0.3,0,0.5,0c-3.3,3.5-5.4,8.3-5.4,13.5v13.7c0,5.8,3.8,11,9.1,12.9V91h-5.9V66.9c0-1.1-0.9-2-2-2s-2,0.9-2,2V91h-7.2v-2.2
	c0-1.1-0.9-2-2-2s-2,0.9-2,2V91H7c-1.1,0-2,0.9-2,2s0.9,2,2,2h86c1.1,0,2-0.9,2-2S94.1,91,93,91z M72.3,12c3.5,0,6.3,2.8,6.3,6.3
	c0,3.5-2.8,6.3-6.3,6.3S66,21.7,66,18.3C66,14.8,68.9,12,72.3,12z M50,9c3.7,0,6.8,3,6.8,6.8c0,3.7-3,6.8-6.8,6.8s-6.8-3-6.8-6.8
	C43.2,12,46.3,9,50,9z M27.7,24.5c-3.5,0-6.3-2.8-6.3-6.3c0-3.5,2.8-6.3,6.3-6.3s6.3,2.8,6.3,6.3C34,21.7,31.1,24.5,27.7,24.5z
	 M39.6,67V47.1c0-1.1-0.9-2-2-2c-1.1,0-2,0.9-2,2v17.4c-3.1-1.7-5.1-5-5.1-8.6V42.2c0-8.6,7-15.6,15.6-15.6h7.8
	c8.6,0,15.6,7,15.6,15.6v13.7c0,4.1-2.6,7.8-6.4,9.2v-18c0-1.1-0.9-2-2-2c-1.1,0-2,0.9-2,2V91H52V66.7c0-1.1-0.9-2-2-2s-2,0.9-2,2
	V91h-8.4V67.7C39.7,67.5,39.7,67.2,39.6,67z M44.5,43.2l4.2,3.4c0.4,0.3,0.8,0.4,1.2,0.4s0.9-0.2,1.2-0.4l4.3-3.4
	c1.6-1.4,3.2-3.2,3.2-5.9c0-3.4-2.8-6.2-6.2-6.2c-0.9,0-1.8,0.2-2.5,0.5c-0.8-0.4-1.7-0.5-2.5-0.5c-3.4,0-6.2,2.8-6.2,6.2
	C41.2,39.9,42.9,41.7,44.5,43.2z M47.5,35c0.5,0,0.9,0.1,1.3,0.4c0.7,0.5,1.7,0.5,2.4,0c0.4-0.3,0.8-0.4,1.3-0.4
	c1.2,0,2.2,1,2.2,2.2c0,0.9-0.5,1.7-1.8,2.8l-3,2.4l-2.9-2.3c-1.4-1.2-1.9-2-1.9-2.9C45.2,36,46.2,35,47.5,35z"/>
</svg>
