<?xml version="1.0" encoding="utf-8"?>
<!-- Generator: Adobe Illustrator 21.0.2, SVG Export Plug-In . SVG Version: 6.00 Build 0)  -->
<svg version="1.1" id="Layer_1" xmlns="http://www.w3.org/2000/svg" xmlns:xlink="http://www.w3.org/1999/xlink" x="0px" y="0px"
	 viewBox="0 0 100 100" style="enable-background:new 0 0 100 100;" xml:space="preserve">
<path d="M91.7,71.3c-3.3-3.3-8.8-4.7-13.7-3.6L58.1,47.9l21-21l0.4,0.4c0.4,0.4,0.9,0.6,1.4,0.6c0.4,0,0.9-0.1,1.3-0.4l11.7-9.5
	c0.4-0.4,0.7-0.9,0.7-1.4c0-0.6-0.2-1.1-0.6-1.5l-9.2-9.2c-0.4-0.4-0.9-0.6-1.5-0.6c-0.6,0-1.1,0.3-1.4,0.7l-9.5,11.7
	c-0.6,0.8-0.6,1.9,0.1,2.7l0.4,0.4l-21,21L32.7,22.4c1.1-5-0.3-10.5-3.6-13.7c-4-4-10.7-4.4-16.2-0.9C12.4,8.1,12,8.6,12,9.2
	c-0.1,0.6,0.1,1.2,0.6,1.6l7.9,7.9l-1.5,1.5L11,12.4c-0.4-0.4-1-0.6-1.6-0.6c-0.6,0.1-1.1,0.4-1.5,0.9c-3.5,5.5-3.1,12.2,0.9,16.2
	c3.3,3.3,8.8,4.7,13.7,3.6l19.1,19.1l-1.8,1.8l-1.8-1.8c-0.7-0.7-1.7-0.8-2.5-0.3l-7.8,4.9c-0.2,0.1-0.3,0.3-0.5,0.4
	c-0.1,0-0.1,0.1-0.2,0.1L9.1,75c-0.5,0.5-0.7,1.3-0.5,1.9l-3,3c-0.8,0.8-0.8,2,0,2.8L16.9,94c0.4,0.4,0.9,0.6,1.4,0.6s1-0.2,1.4-0.6
	l3-3c0.2,0,0.3,0.1,0.5,0.1c0.5,0,1-0.2,1.4-0.6l18.1-18.1c0.1-0.1,0.1-0.1,0.1-0.2c0.2-0.1,0.3-0.3,0.4-0.5l4.9-7.8
	c0.5-0.8,0.4-1.8-0.3-2.5l-1.8-1.8l1.8-1.8l19.8,19.8c-1.1,5,0.3,10.5,3.6,13.7c2.2,2.2,5.2,3.3,8.3,3.3c2.6,0,5.4-0.8,7.9-2.4
	c0.5-0.3,0.8-0.9,0.9-1.5c0.1-0.6-0.1-1.2-0.6-1.6l-7.9-7.9l1.5-1.5l7.9,7.9c0.4,0.4,1,0.6,1.6,0.6c0.6-0.1,1.1-0.4,1.5-0.9
	C96.1,82,95.7,75.3,91.7,71.3z"/>
</svg>
